HIERARCHY
ROOT Hips
{
	OFFSET -0.001795 -0.223333 0.028219
	CHANNELS 6 Xposition Yposition Zposition Zrotation Yrotation Xrotation 
	JOINT LeftUpLeg
	{
		OFFSET 0.069520 -0.091406 -0.006815
		CHANNELS 3 Zrotation Yrotation Xrotation
		JOINT LeftLeg
		{
			OFFSET 0.034277 -0.375199 -0.004496
			CHANNELS 3 Zrotation Yrotation Xrotation
			JOINT LeftFoot
			{
				OFFSET -0.013596 -0.397961 -0.043693
				CHANNELS 3 Zrotation Yrotation Xrotation
				JOINT LeftToe
				{
					OFFSET 0.026358 -0.055791 0.119288
					CHANNELS 3 Zrotation Yrotation Xrotation
					End Site
					{
						OFFSET 0.000000 0.000000 0.000000
					}
				}
			}
		}
	}
	JOINT RightUpLeg
	{
		OFFSET -0.067670 -0.090522 -0.004320
		CHANNELS 3 Zrotation Yrotation Xrotation
		JOINT RightLeg
		{
			OFFSET -0.038290 -0.382569 -0.008850
			CHANNELS 3 Zrotation Yrotation Xrotation
			JOINT RightFoot
			{
				OFFSET 0.015774 -0.398415 -0.042312
				CHANNELS 3 Zrotation Yrotation Xrotation
				JOINT RightToe
				{
					OFFSET -0.025372 -0.048144 0.123348
					CHANNELS 3 Zrotation Yrotation Xrotation
					End Site
					{
						OFFSET 0.000000 0.000000 0.000000
					}
				}
			}
		}
	}
	JOINT Spine
	{
		OFFSET -0.002533 0.108963 -0.026696
		CHANNELS 3 Zrotation Yrotation Xrotation
		JOINT Spine1
		{
			OFFSET 0.005487 0.135180 0.001092
			CHANNELS 3 Zrotation Yrotation Xrotation
			JOINT Spine2
			{
				OFFSET 0.001457 0.052922 0.025425
				CHANNELS 3 Zrotation Yrotation Xrotation
				JOINT Neck
				{
					OFFSET -0.002778 0.213870 -0.042857
					CHANNELS 3 Zrotation Yrotation Xrotation
					JOINT Head
					{
						OFFSET 0.005152 0.064970 0.051349
						CHANNELS 3 Zrotation Yrotation Xrotation
						End Site
						{
							OFFSET 0.000000 0.000000 0.000000
						}
					}
				}
				JOINT LeftShoulder
				{
					OFFSET 0.078845 0.121749 -0.034090
					CHANNELS 3 Zrotation Yrotation Xrotation
					JOINT LeftArm
					{
						OFFSET 0.090977 0.030469 -0.008868
						CHANNELS 3 Zrotation Yrotation Xrotation
						JOINT LeftForeArm
						{
							OFFSET 0.259612 -0.012772 -0.027456
							CHANNELS 3 Zrotation Yrotation Xrotation
							JOINT LeftHand
							{
								OFFSET 0.249234 0.008986 -0.001171
								CHANNELS 3 Zrotation Yrotation Xrotation
								End Site
								{
									OFFSET 0.000000 0.000000 0.000000
								}
							}
						}
					}
				}
				JOINT RightShoulder
				{
					OFFSET -0.081759 0.118833 -0.038615
					CHANNELS 3 Zrotation Yrotation Xrotation
					JOINT RightArm
					{
						OFFSET -0.096012 0.032551 -0.009143
						CHANNELS 3 Zrotation Yrotation Xrotation
						JOINT RightForeArm
						{
							OFFSET -0.253742 -0.013329 -0.021401
							CHANNELS 3 Zrotation Yrotation Xrotation
							JOINT RightHand
							{
								OFFSET -0.255298 0.007772 -0.005559
								CHANNELS 3 Zrotation Yrotation Xrotation
								End Site
								{
									OFFSET 0.000000 0.000000 0.000000
								}
							}
						}
					}
				}
			}
		}
	}
}
MOTION
Frames: 12
Frame Time: 0.050000
0.000000 0.937270 0.000000 -0.959407 1.987881 4.423018 9.556789 -0.261359 1.702486 2.262988 0.588080 -16.061316 0.188346 7.471628 20.158343 0.000000 0.000000 0.000000 -7.000192 0.220276 -0.421967 7.482486 -0.674875 -5.825145 -8.615562 -20.613308 14.652124 0.000000 0.000000 0.000000 -2.620885 0.067328 -0.537663 5.024986 -0.873427 -19.349741 -0.838276 -1.757035 26.126897 -1.330599 2.123566 -22.577095 0.000000 0.000000 0.000000 -22.687725 2.206259 -2.578384 -51.187580 -9.219809 -4.432072 -6.384732 -22.845383 2.454686 0.000000 0.000000 0.000000 14.549025 3.993608 1.153671 55.616974 7.897737 -4.077771 -2.491606 19.172717 0.433584 0.000000 0.000000 0.000000 
0.000342 0.936569 0.000144 -1.077529 0.992850 4.804383 9.955046 -0.258823 2.077750 1.693705 0.628145 -16.928613 0.697585 8.082471 20.450451 0.000000 0.000000 0.000000 -7.147827 0.278555 -1.208160 7.762405 -0.678874 -5.432722 -8.202748 -19.998032 14.205018 0.000000 0.000000 0.000000 -2.594177 0.094839 -1.788526 5.025713 -0.924024 -18.891619 -0.989559 -0.760202 26.687380 -1.959033 2.584508 -22.568689 0.000000 0.000000 0.000000 -22.335022 3.063852 -3.143560 -51.379923 -9.132994 -4.504069 -7.460953 -23.809373 2.795502 0.000000 0.000000 0.000000 14.515335 4.040118 1.264846 56.064176 7.917658 -4.150168 -3.835456 20.503364 0.286941 0.000000 0.000000 0.000000 
0.000601 0.936783 0.000060 -0.835980 1.168280 4.880449 9.755620 -0.258650 1.440195 1.560505 0.579913 -16.051762 0.663610 7.990012 20.138943 0.000000 0.000000 0.000000 -7.546558 0.281922 -1.118263 7.997805 -0.689282 -5.693975 -8.277378 -20.107370 14.374553 0.000000 0.000000 0.000000 -2.588732 0.100211 -2.082993 5.038761 -0.927725 -18.822114 -1.371988 -1.005919 26.979185 -1.316074 2.140507 -21.987199 0.000000 0.000000 0.000000 -22.254210 2.437568 -2.712436 -51.366397 -9.598561 -4.356391 -6.590853 -23.095623 2.529048 0.000000 0.000000 0.000000 15.169379 4.544458 1.484546 55.288158 8.499807 -3.880610 -3.778147 19.696229 0.270395 0.000000 0.000000 0.000000 
0.000779 0.936269 0.000074 -0.857011 0.820478 4.959522 10.076997 -0.264052 1.457122 0.998044 0.567783 -16.058885 0.882484 8.211842 20.033712 0.000000 0.000000 0.000000 -7.868885 0.314905 -1.663291 8.524207 -0.735846 -4.973599 -8.163982 -19.943178 14.018775 0.000000 0.000000 0.000000 -2.938048 0.110225 -2.479980 5.155287 -0.966599 -18.852260 -1.402723 -1.223195 27.281831 -2.149487 2.569372 -21.051909 0.000000 0.000000 0.000000 -22.466411 3.173963 -3.041619 -51.354008 -9.406731 -4.474544 -7.739236 -23.560050 2.849301 0.000000 0.000000 0.000000 14.707425 4.998847 1.638863 55.204928 8.848570 -3.748254 -3.541021 20.025181 0.296796 0.000000 0.000000 0.000000 
0.000878 0.936491 0.000077 -0.882132 1.088138 4.714805 10.069929 -0.266112 1.412169 1.063442 0.547200 -15.646815 0.761034 8.040224 19.837125 0.000000 0.000000 0.000000 -7.878008 0.293298 -1.293468 8.624774 -0.746452 -5.078270 -8.245298 -20.062204 14.170055 0.000000 0.000000 0.000000 -2.965788 0.102309 -2.163998 5.259412 -1.011460 -18.592863 -1.622707 -1.266270 26.787728 -1.986556 2.474939 -20.748874 0.000000 0.000000 0.000000 -22.075955 2.906392 -2.898601 -51.660271 -9.310614 -4.463221 -8.322192 -23.601344 2.961874 0.000000 0.000000 0.000000 14.760072 4.766466 1.529129 54.918677 9.152969 -3.534130 -3.258931 19.846146 0.331934 0.000000 0.000000 0.000000 
0.001003 0.936587 0.000040 -0.928250 0.882600 4.732592 9.923088 -0.255167 1.335716 1.385473 0.551990 -15.448189 0.880493 8.165740 19.790258 0.000000 0.000000 0.000000 -7.861248 0.303206 -1.472218 8.632877 -0.749045 -4.859475 -8.157026 -19.926523 14.116089 0.000000 0.000000 0.000000 -3.306804 0.108170 -2.452358 5.282969 -1.020059 -18.623867 -1.380167 -1.168660 27.180997 -2.169703 2.582995 -20.504846 0.000000 0.000000 0.000000 -21.725681 3.162953 -2.987568 -52.123356 -9.489342 -4.452864 -8.682852 -24.020792 3.111490 0.000000 0.000000 0.000000 14.339602 4.897407 1.603927 54.509746 9.528445 -3.392561 -3.011660 20.068614 0.369773 0.000000 0.000000 0.000000 
0.001103 0.936866 -0.000054 -0.958778 0.910221 4.559597 10.022963 -0.255625 1.427558 1.252006 0.541052 -15.303691 0.857382 8.132006 19.758331 0.000000 0.000000 0.000000 -7.877929 0.293423 -1.275754 8.714917 -0.755038 -4.876040 -8.136468 -19.889144 14.214820 0.000000 0.000000 0.000000 -3.402117 0.103930 -2.231871 5.162284 -1.005372 -18.349877 -1.335720 -1.344828 27.086031 -2.189307 2.568236 -20.495127 0.000000 0.000000 0.000000 -21.743504 3.163256 -2.946232 -52.292782 -9.354816 -4.518018 -9.137572 -24.668641 3.315323 0.000000 0.000000 0.000000 14.017560 5.314852 1.779118 54.485668 9.814503 -3.249292 -2.942160 20.263283 0.375266 0.000000 0.000000 0.000000 
0.001236 0.936966 -0.000261 -1.062660 0.819528 4.468957 9.949410 -0.248026 1.414557 1.564431 0.541024 -15.087840 0.916651 8.185872 19.679320 0.000000 0.000000 0.000000 -7.683758 0.287424 -1.211910 8.542569 -0.742108 -4.865086 -8.081401 -19.803341 14.228590 0.000000 0.000000 0.000000 -3.370831 0.103781 -2.282089 5.032350 -0.989629 -18.073574 -1.315553 -0.898785 27.052025 -1.983209 2.498877 -20.415219 0.000000 0.000000 0.000000 -21.607812 2.790698 -2.824127 -52.433470 -9.333651 -4.517711 -9.971096 -25.388900 3.592645 0.000000 0.000000 0.000000 14.074947 5.406765 1.900496 54.391179 10.285462 -3.039160 -3.101931 20.432896 0.365998 0.000000 0.000000 0.000000 
0.001336 0.936982 -0.000552 -1.077209 0.877071 4.435702 9.831671 -0.244774 1.374052 1.794056 0.542318 -15.016417 0.890178 8.150730 19.647376 0.000000 0.000000 0.000000 -7.703673 0.286929 -1.236175 8.602324 -0.750731 -4.776296 -8.107551 -19.843470 14.242800 0.000000 0.000000 0.000000 -3.409476 0.103261 -2.277223 4.910717 -0.950369 -18.106246 -1.287326 -0.688232 27.150038 -1.878650 2.480373 -20.698432 0.000000 0.000000 0.000000 -21.235299 2.646083 -2.764983 -53.014528 -9.542965 -4.454606 -10.016095 -25.523554 3.618350 0.000000 0.000000 0.000000 13.871816 5.502335 1.998979 54.499723 10.667833 -2.876384 -3.221387 20.402363 0.354836 0.000000 0.000000 0.000000 
0.001341 0.936926 -0.000927 -1.137674 0.913313 4.426433 9.848876 -0.246609 1.319981 1.887166 0.541588 -14.966633 0.881534 8.136512 19.613378 0.000000 0.000000 0.000000 -7.614212 0.288800 -1.364879 8.564210 -0.756508 -4.565842 -8.137955 -19.893213 14.199907 0.000000 0.000000 0.000000 -3.366544 0.102574 -2.238299 4.756899 -0.914798 -17.953965 -1.262522 -0.544931 27.058272 -1.827858 2.483085 -20.957090 0.000000 0.000000 0.000000 -21.057765 2.396139 -2.652116 -53.176670 -9.733513 -4.359865 -10.310147 -25.886355 3.732723 0.000000 0.000000 0.000000 13.553594 5.764426 2.155876 54.771854 10.966975 -2.726303 -3.413730 20.536303 0.331724 0.000000 0.000000 0.000000 
0.001209 0.936827 -0.001311 -1.143976 0.733834 4.416012 9.852296 -0.241431 1.309953 1.898730 0.540650 -14.883987 0.979181 8.242867 19.595892 0.000000 0.000000 0.000000 -7.638783 0.294004 -1.407338 8.606588 -0.754913 -4.564433 -8.055668 -19.767433 14.129911 0.000000 0.000000 0.000000 -3.373257 0.101973 -2.128323 4.594272 -0.871123 -17.946897 -1.236811 -0.340374 26.920353 -1.768595 2.472783 -21.264173 0.000000 0.000000 0.000000 -21.128912 2.069247 -2.502581 -52.986257 -9.992140 -4.220427 -10.416392 -25.664309 3.708339 0.000000 0.000000 0.000000 13.538076 5.953245 2.261841 54.858129 11.384732 -2.523203 -3.285778 20.467269 0.351127 0.000000 0.000000 0.000000 
0.001042 0.936747 -0.001594 -1.170524 0.529532 4.335929 10.169935 -0.245671 1.329146 1.394947 0.523049 -14.692914 1.102725 8.362619 19.505414 0.000000 0.000000 0.000000 -7.595068 0.296026 -1.421337 8.567837 -0.750976 -4.471682 -7.962121 -19.626142 14.022646 0.000000 0.000000 0.000000 -3.397905 0.097868 -1.764184 4.553085 -0.852168 -18.115761 -1.181131 -0.425243 26.695167 -1.501325 2.300551 -22.114318 0.000000 0.000000 0.000000 -21.369644 2.240669 -2.575878 -52.703242 -10.242996 -4.084240 -10.196662 -25.287601 3.603352 0.000000 0.000000 0.000000 13.361057 6.024245 2.247497 55.235612 11.718733 -2.344993 -3.188155 20.904212 0.370160 0.000000 0.000000 0.000000 
